{"title":"Wynonna Earp S02E01 REPACK 720p HDTV HEVC 2CH x265","magnet":"magnet:?xt=urn:btih:82ddba3540bcc9a2ecb2431b2bdf3eafa723c12f&dn=Wynonna+Earp+S02E01+REPACK+720p+HDTV+HEVC+2CH+x265&tr=udp%3A%2F%2Ftracker.leechers-paradise.org%3A6969&tr=udp%3A%2F%2Fzer0day.ch%3A1337&tr=udp%3A%2F%2Fopen.demonii.com%3A1337&tr=udp%3A%2F%2Ftracker.coppersurfer.tk%3A6969&tr=udp%3A%2F%2Fexodus.desync.com%3A6969","uploader":"nayhtut","categoryP":"video","categoryS":"hd___tv_shows","size":"347421843","seeders":"27","leechers":"8","description":"Source: Wynonna Earp S02E01 REPACK 720p HDTV x264-AVS (857 MB)\r\n\r\n\r\nComplete name: Wynonna.Earp.S02E01.REPACK.720p.HDTV.HEVC.2CH.x265.mkv\r\nFormat                                   : Matroska\r\nFormat version                           : Version 4 / Version 2\r\nFile size                                : 331 MiB\r\nDuration                                 : 43mn 11s\r\nOverall bit rate                         : 1 073 Kbps\r\nWriting application                      : Lavf57.25.100\r\n\r\nVideo\r\n\r\nID                                       : 1\r\nFormat                                   : V_MPEGH/ISO/HEVC\r\nDuration                                 : 43mn 11s\r\nBit rate                                 : 827 Kbps\r\nWidth                                    : 1 280 pixels\r\nHeight                                   : 718 pixels\r\nDisplay aspect ratio                     : 16:9\r\nFrame rate                               : 25.000 fps\r\nBits/(Pixel*Frame)                       : 0.036\r\nStream size                              : 256 MiB (77%)\r\nDefault                                  : Yes\r\nForced                                   : No\r\nDURATION                                 : 00:43:11.011000000\r\n\r\nAudio\r\n\r\nID                                       : 2\r\nFormat                                   : AC-3\r\nFormat/Info                              : Audio Coding 3\r\nMode extension                           : CM (complete main)\r\nFormat settings, Endianness              : Big\r\nCodec ID                                 : A_AC3\r\nDuration                                 : 43mn 11s\r\nBit rate mode                            : Constant\r\nBit rate                                 : 224 Kbps\r\nChannel(s)                               : 2 channels\r\nChannel positions                        : Front: L R\r\nSampling rate                            : 48.0 KHz\r\nBit depth                                : 32 bits\r\nCompression mode                         : Lossy\r\nStream size                              : 69.2 MiB (21%)\r\nWriting library                          : Lavc57.24.102 ac3\r\nDefault                                  : Yes\r\nForced                                   : No\r\nDURATION                                 : 00:43:11.071000000","last_updated":"2017-06-10T12:03:35.509Z","parsed":{"xt":"urn:btih:82ddba3540bcc9a2ecb2431b2bdf3eafa723c12f","dn":"Wynonna Earp S02E01 REPACK 720p HDTV HEVC 2CH x265","tr":["udp://exodus.desync.com:6969","udp://open.demonii.com:1337","udp://tracker.coppersurfer.tk:6969","udp://tracker.leechers-paradise.org:6969","udp://zer0day.ch:1337"],"infoHash":"82ddba3540bcc9a2ecb2431b2bdf3eafa723c12f","infoHashBuffer":{"type":"Buffer","data":[130,221,186,53,64,188,201,162,236,178,67,27,43,223,62,175,167,35,193,47]},"name":"Wynonna Earp S02E01 REPACK 720p HDTV HEVC 2CH x265","announce":["udp://exodus.desync.com:6969","udp://open.demonii.com:1337","udp://tracker.coppersurfer.tk:6969","udp://tracker.leechers-paradise.org:6969","udp://zer0day.ch:1337"],"urlList":[]}}